<svg version="1.1" id="Layer_1" xmlns="http://www.w3.org/2000/svg" xmlns:xlink="http://www.w3.org/1999/xlink" x="0px" y="0px"
	 width="100%" viewBox="0 0 1344 538" enable-background="new 0 0 1344 538" xml:space="preserve">
<path fill="#000000" opacity="1.000000" stroke="none" 
	d="
M841.000000,539.000000 
	C560.703796,539.000000 280.907623,539.000000 1.055717,539.000000 
	C1.055717,359.727631 1.055717,180.455246 1.055717,1.091424 
	C448.879578,1.091424 896.759216,1.091424 1344.819336,1.091424 
	C1344.819336,180.333191 1344.819336,359.666565 1344.819336,539.000000 
	C1177.121826,539.000000 1009.310913,539.000000 841.000000,539.000000 
M986.000000,301.500031 
	C986.485718,285.438049 985.908691,269.443146 980.490784,254.128174 
	C966.664795,215.045898 941.530579,185.508163 904.668030,166.404617 
	C871.326599,149.125809 836.194214,144.829254 800.016602,155.252274 
	C786.022827,159.283966 772.756836,165.865005 759.205566,171.397964 
	C753.796936,173.606339 752.235107,172.757126 752.029480,166.953354 
	C751.970459,165.289062 752.001099,163.621384 752.000977,161.955246 
	C751.998962,136.629456 752.013916,111.303658 751.991516,85.977890 
	C751.980225,73.272972 749.731140,71.007072 737.298767,71.001747 
	C724.635864,70.996323 711.972961,70.977470 699.310120,71.011642 
	C689.125916,71.039131 687.068298,73.133804 687.004150,83.346886 
	C686.998901,84.179947 687.000305,85.013054 687.000305,85.846138 
	C687.000183,199.978790 686.999939,314.111450 687.003601,428.244110 
	C687.003662,430.243103 686.951721,432.249481 687.098206,434.239624 
	C687.476440,439.378052 690.548706,442.793060 695.644775,442.849762 
	C711.303772,443.023956 726.967285,443.023773 742.626221,442.846344 
	C747.858826,442.787048 750.871948,439.798309 751.671021,434.560638 
	C752.045166,432.108337 751.986328,429.577728 751.987244,427.082581 
	C752.004150,382.429230 751.987976,337.775848 752.026550,293.122528 
	C752.029297,289.971405 752.131470,286.775665 752.646240,283.676880 
	C756.432983,260.881866 768.729187,243.346481 787.119080,230.080353 
	C803.016418,218.612320 821.162781,212.987961 840.731567,214.311951 
	C866.207886,216.035599 887.425354,226.932220 903.435486,247.086700 
	C914.494568,261.008453 921.171509,276.540741 921.075195,294.805359 
	C920.843323,338.791046 920.996521,382.778748 921.010498,426.765656 
	C921.011292,429.261902 920.944397,431.787018 921.279236,434.248383 
	C922.023926,439.723724 925.103149,442.799835 930.556335,442.861023 
	C946.049133,443.034851 961.545837,443.020355 977.039246,442.882599 
	C982.033020,442.838196 985.065063,439.887970 985.745300,434.947052 
	C986.061462,432.650757 985.989563,430.292725 985.990295,427.962616 
	C986.002991,386.141754 985.999817,344.320862 986.000000,301.500031 
M535.023315,378.686188 
	C529.217468,378.460938 523.365356,378.627167 517.613220,377.947510 
	C476.734100,373.117645 443.633972,336.663971 443.090820,295.467255 
	C442.713379,266.836517 453.992157,243.306595 476.424316,225.511795 
	C492.392029,212.845062 511.043060,206.452972 531.282593,207.330597 
	C558.338623,208.503784 580.544556,220.184158 597.214722,241.876770 
	C601.407898,247.333206 605.763123,248.718140 611.573303,245.545303 
	C624.723267,238.364365 637.671326,230.803467 650.550598,223.143372 
	C654.740967,220.651123 655.937866,215.792542 653.954163,211.305038 
	C652.888062,208.893463 651.588745,206.416687 649.809998,204.516800 
	C640.840576,194.936905 632.521973,184.504791 622.430542,176.262756 
	C588.622131,148.650330 549.448730,138.445892 506.423004,144.559113 
	C467.799133,150.046860 436.093414,168.662857 411.679932,199.010666 
	C386.613770,230.169785 376.001465,266.220917 379.334412,305.889313 
	C382.445465,342.917572 397.321899,374.825226 424.303284,400.839050 
	C460.308136,435.552826 503.410034,448.334839 552.318970,441.253967 
	C588.513672,436.013824 618.377686,418.330780 642.433960,390.888367 
	C646.153442,386.645294 649.582703,382.072571 652.594421,377.303833 
	C656.107727,371.740875 655.347656,366.149628 650.450439,363.169678 
	C637.505981,355.292938 624.402527,347.663696 611.169739,340.281250 
	C606.098083,337.451782 601.204895,338.824768 597.864380,343.285309 
	C582.321716,364.039276 561.655457,375.715546 535.023315,378.686188 
M1171.328735,143.016083 
	C1161.695435,143.484558 1151.941406,143.144974 1142.449951,144.563187 
	C1104.066895,150.298416 1072.382202,168.400284 1048.057007,198.584702 
	C1020.436279,232.858490 1009.925171,272.371704 1016.638611,315.663513 
	C1024.650757,367.329865 1052.874756,405.153870 1099.775024,428.233124 
	C1138.598511,447.337891 1178.540405,447.765930 1219.085327,433.124237 
	C1230.349487,429.056458 1230.584717,419.520203 1223.112549,412.404419 
	C1212.873901,402.654236 1203.155273,392.330444 1193.625488,381.877197 
	C1189.750610,377.626923 1185.536865,376.510895 1180.250977,377.254028 
	C1175.476318,377.925293 1170.669312,378.958038 1165.888306,378.897308 
	C1138.104248,378.544464 1115.000122,367.890869 1097.692017,346.032684 
	C1071.040405,312.374573 1072.156616,264.798645 1104.251953,232.669922 
	C1125.690186,211.209595 1152.354370,202.794220 1182.606079,209.564987 
	C1189.691895,211.150879 1194.880005,209.495285 1199.767212,204.726715 
	C1209.776001,194.960556 1219.942139,185.354858 1229.906860,175.544373 
	C1237.748657,167.824036 1236.682861,161.227234 1226.777466,156.430649 
	C1209.583374,148.104599 1191.162964,144.593796 1171.328735,143.016083 
M164.500885,201.000839 
	C170.526688,208.922867 177.934692,211.020538 187.835358,208.642807 
	C194.590408,207.020538 202.085190,207.317413 209.093796,208.117599 
	C236.148239,211.206436 257.419922,224.064819 272.074646,247.257034 
	C276.031586,253.519180 272.898376,259.839874 265.539612,260.798065 
	C263.404175,261.076141 261.215271,260.990967 259.050842,260.992096 
	C230.725098,261.006836 202.399185,261.059418 174.073700,260.973572 
	C167.168365,260.952637 161.655914,263.386902 158.017365,269.257782 
	C151.003464,280.574860 150.337402,292.566254 155.579437,304.637299 
	C158.989883,312.490662 164.699005,317.200439 174.146790,317.102203 
	C202.469467,316.807617 230.797195,317.000122 259.122955,316.999512 
	C285.282623,316.998932 311.442291,317.019836 337.601898,316.976837 
	C346.011871,316.963013 348.548553,315.383484 349.058838,307.269440 
	C349.713562,296.857788 350.221588,286.225403 348.887360,275.935211 
	C341.383606,218.062393 310.344330,177.373428 257.088165,154.000931 
	C232.449829,143.187927 206.212265,140.203262 179.744171,144.503235 
	C166.079483,146.723190 152.790359,151.613617 139.557434,155.981766 
	C132.917297,158.173660 131.374741,164.769943 135.229187,170.690170 
	C136.579391,172.764008 138.245087,174.676071 139.989151,176.442368 
	C147.949814,184.504547 155.989532,192.488647 164.500885,201.000839 
M1251.500000,208.000031 
	C1245.964478,213.535919 1240.420044,219.062988 1234.895874,224.610107 
	C1228.779785,230.751404 1228.166382,235.334351 1233.193237,242.184998 
	C1257.541260,275.366852 1255.054932,317.287659 1229.794312,348.598907 
	C1224.552734,355.096130 1224.598022,359.859528 1230.347534,365.749207 
	C1239.768311,375.399628 1249.314941,384.930542 1258.951782,394.365448 
	C1264.209229,399.512970 1270.661621,399.855255 1275.076538,394.156555 
	C1283.296387,383.546082 1291.741577,372.859833 1298.139893,361.138885 
	C1312.883545,334.130188 1316.469727,304.749603 1313.196655,274.427734 
	C1310.028809,245.080292 1298.170776,219.428726 1279.501709,196.789185 
	C1274.620728,190.870178 1269.158936,190.597900 1263.684082,195.864487 
	C1259.723389,199.674469 1255.890137,203.616730 1251.500000,208.000031 
M127.502594,222.002548 
	C118.667099,213.177414 109.899689,204.282608 100.969376,195.554489 
	C95.993469,190.691254 89.948761,190.771835 85.920448,196.424194 
	C78.793991,206.423752 71.358986,216.389587 65.745529,227.244720 
	C51.620178,254.559906 48.176655,283.967957 52.160099,314.172791 
	C56.074631,343.855042 68.697746,369.816986 88.101692,392.477081 
	C94.664238,400.140900 100.336487,400.107758 107.519691,392.963898 
	C116.492180,384.040558 125.481537,375.132507 134.337479,366.094269 
	C140.387039,359.920197 140.549271,355.228485 135.189041,348.579742 
	C109.934441,317.254211 107.524757,275.386261 131.677643,242.110840 
	C133.791367,239.198792 134.970367,234.523239 134.370468,231.048935 
	C133.831482,227.927261 130.245697,225.331665 127.502594,222.002548 
M245.292404,365.819061 
	C228.687820,375.899323 210.842880,380.646057 191.377319,378.207306 
	C184.706772,377.371582 179.241852,378.706085 174.316772,383.975464 
	C164.310410,394.681458 153.643936,404.768036 143.341187,415.200348 
	C136.106125,422.526367 137.478317,429.663635 147.034470,433.350098 
	C160.460999,438.529602 174.371521,442.010681 188.765381,442.889252 
	C221.778900,444.904388 252.636993,437.964264 280.756683,420.070892 
	C297.855072,409.190643 312.041992,395.295898 323.513184,378.649200 
	C327.860809,372.340027 326.723267,365.642548 320.883575,362.098907 
	C308.924225,354.841736 296.905670,347.678955 284.819946,340.634430 
	C278.288696,336.827484 273.639099,337.743591 269.188568,343.813080 
	C262.793365,352.534607 254.993622,359.654236 245.292404,365.819061 
z"/>
<path fill="#1D1D1B" opacity="1.000000" stroke="none" 
	d="
M986.000000,302.000000 
	C985.999817,344.320862 986.002991,386.141754 985.990295,427.962616 
	C985.989563,430.292725 986.061462,432.650757 985.745300,434.947052 
	C985.065063,439.887970 982.033020,442.838196 977.039246,442.882599 
	C961.545837,443.020355 946.049133,443.034851 930.556335,442.861023 
	C925.103149,442.799835 922.023926,439.723724 921.279236,434.248383 
	C920.944397,431.787018 921.011292,429.261902 921.010498,426.765656 
	C920.996521,382.778748 920.843323,338.791046 921.075195,294.805359 
	C921.171509,276.540741 914.494568,261.008453 903.435486,247.086700 
	C887.425354,226.932220 866.207886,216.035599 840.731567,214.311951 
	C821.162781,212.987961 803.016418,218.612320 787.119080,230.080353 
	C768.729187,243.346481 756.432983,260.881866 752.646240,283.676880 
	C752.131470,286.775665 752.029297,289.971405 752.026550,293.122528 
	C751.987976,337.775848 752.004150,382.429230 751.987244,427.082581 
	C751.986328,429.577728 752.045166,432.108337 751.671021,434.560638 
	C750.871948,439.798309 747.858826,442.787048 742.626221,442.846344 
	C726.967285,443.023773 711.303772,443.023956 695.644775,442.849762 
	C690.548706,442.793060 687.476440,439.378052 687.098206,434.239624 
	C686.951721,432.249481 687.003662,430.243103 687.003601,428.244110 
	C686.999939,314.111450 687.000183,199.978790 687.000305,85.846138 
	C687.000305,85.013054 686.998901,84.179947 687.004150,83.346886 
	C687.068298,73.133804 689.125916,71.039131 699.310120,71.011642 
	C711.972961,70.977470 724.635864,70.996323 737.298767,71.001747 
	C749.731140,71.007072 751.980225,73.272972 751.991516,85.977890 
	C752.013916,111.303658 751.998962,136.629456 752.000977,161.955246 
	C752.001099,163.621384 751.970459,165.289062 752.029480,166.953354 
	C752.235107,172.757126 753.796936,173.606339 759.205566,171.397964 
	C772.756836,165.865005 786.022827,159.283966 800.016602,155.252274 
	C836.194214,144.829254 871.326599,149.125809 904.668030,166.404617 
	C941.530579,185.508163 966.664795,215.045898 980.490784,254.128174 
	C985.908691,269.443146 986.485718,285.438049 986.000000,302.000000 
z"/>
<path fill="#1D1D1B" opacity="1.000000" stroke="none" 
	d="
M535.472046,378.600281 
	C561.655457,375.715546 582.321716,364.039276 597.864380,343.285309 
	C601.204895,338.824768 606.098083,337.451782 611.169739,340.281250 
	C624.402527,347.663696 637.505981,355.292938 650.450439,363.169678 
	C655.347656,366.149628 656.107727,371.740875 652.594421,377.303833 
	C649.582703,382.072571 646.153442,386.645294 642.433960,390.888367 
	C618.377686,418.330780 588.513672,436.013824 552.318970,441.253967 
	C503.410034,448.334839 460.308136,435.552826 424.303284,400.839050 
	C397.321899,374.825226 382.445465,342.917572 379.334412,305.889313 
	C376.001465,266.220917 386.613770,230.169785 411.679932,199.010666 
	C436.093414,168.662857 467.799133,150.046860 506.423004,144.559113 
	C549.448730,138.445892 588.622131,148.650330 622.430542,176.262756 
	C632.521973,184.504791 640.840576,194.936905 649.809998,204.516800 
	C651.588745,206.416687 652.888062,208.893463 653.954163,211.305038 
	C655.937866,215.792542 654.740967,220.651123 650.550598,223.143372 
	C637.671326,230.803467 624.723267,238.364365 611.573303,245.545303 
	C605.763123,248.718140 601.407898,247.333206 597.214722,241.876770 
	C580.544556,220.184158 558.338623,208.503784 531.282593,207.330597 
	C511.043060,206.452972 492.392029,212.845062 476.424316,225.511795 
	C453.992157,243.306595 442.713379,266.836517 443.090820,295.467255 
	C443.633972,336.663971 476.734100,373.117645 517.613220,377.947510 
	C523.365356,378.627167 529.217468,378.460938 535.472046,378.600281 
z"/>
<path fill="#1D1D1B" opacity="1.000000" stroke="none" 
	d="
M1171.806030,143.024719 
	C1191.162964,144.593796 1209.583374,148.104599 1226.777466,156.430649 
	C1236.682861,161.227234 1237.748657,167.824036 1229.906860,175.544373 
	C1219.942139,185.354858 1209.776001,194.960556 1199.767212,204.726715 
	C1194.880005,209.495285 1189.691895,211.150879 1182.606079,209.564987 
	C1152.354370,202.794220 1125.690186,211.209595 1104.251953,232.669922 
	C1072.156616,264.798645 1071.040405,312.374573 1097.692017,346.032684 
	C1115.000122,367.890869 1138.104248,378.544464 1165.888306,378.897308 
	C1170.669312,378.958038 1175.476318,377.925293 1180.250977,377.254028 
	C1185.536865,376.510895 1189.750610,377.626923 1193.625488,381.877197 
	C1203.155273,392.330444 1212.873901,402.654236 1223.112549,412.404419 
	C1230.584717,419.520203 1230.349487,429.056458 1219.085327,433.124237 
	C1178.540405,447.765930 1138.598511,447.337891 1099.775024,428.233124 
	C1052.874756,405.153870 1024.650757,367.329865 1016.638611,315.663513 
	C1009.925171,272.371704 1020.436279,232.858490 1048.057007,198.584702 
	C1072.382202,168.400284 1104.066895,150.298416 1142.449951,144.563187 
	C1151.941406,143.144974 1161.695435,143.484558 1171.806030,143.024719 
z"/>
<path fill="#1D1D1B" opacity="1.000000" stroke="none" 
	d="
M164.250854,200.750824 
	C155.989532,192.488647 147.949814,184.504547 139.989151,176.442368 
	C138.245087,174.676071 136.579391,172.764008 135.229187,170.690170 
	C131.374741,164.769943 132.917297,158.173660 139.557434,155.981766 
	C152.790359,151.613617 166.079483,146.723190 179.744171,144.503235 
	C206.212265,140.203262 232.449829,143.187927 257.088165,154.000931 
	C310.344330,177.373428 341.383606,218.062393 348.887360,275.935211 
	C350.221588,286.225403 349.713562,296.857788 349.058838,307.269440 
	C348.548553,315.383484 346.011871,316.963013 337.601898,316.976837 
	C311.442291,317.019836 285.282623,316.998932 259.122955,316.999512 
	C230.797195,317.000122 202.469467,316.807617 174.146790,317.102203 
	C164.699005,317.200439 158.989883,312.490662 155.579437,304.637299 
	C150.337402,292.566254 151.003464,280.574860 158.017365,269.257782 
	C161.655914,263.386902 167.168365,260.952637 174.073700,260.973572 
	C202.399185,261.059418 230.725098,261.006836 259.050842,260.992096 
	C261.215271,260.990967 263.404175,261.076141 265.539612,260.798065 
	C272.898376,259.839874 276.031586,253.519180 272.074646,247.257034 
	C257.419922,224.064819 236.148239,211.206436 209.093796,208.117599 
	C202.085190,207.317413 194.590408,207.020538 187.835358,208.642807 
	C177.934692,211.020538 170.526688,208.922867 164.250854,200.750824 
z"/>
<path fill="#1D1D1B" opacity="1.000000" stroke="none" 
	d="
M1251.750000,207.750031 
	C1255.890137,203.616730 1259.723389,199.674469 1263.684082,195.864487 
	C1269.158936,190.597900 1274.620728,190.870178 1279.501709,196.789185 
	C1298.170776,219.428726 1310.028809,245.080292 1313.196655,274.427734 
	C1316.469727,304.749603 1312.883545,334.130188 1298.139893,361.138885 
	C1291.741577,372.859833 1283.296387,383.546082 1275.076538,394.156555 
	C1270.661621,399.855255 1264.209229,399.512970 1258.951782,394.365448 
	C1249.314941,384.930542 1239.768311,375.399628 1230.347534,365.749207 
	C1224.598022,359.859528 1224.552734,355.096130 1229.794312,348.598907 
	C1255.054932,317.287659 1257.541260,275.366852 1233.193237,242.184998 
	C1228.166382,235.334351 1228.779785,230.751404 1234.895874,224.610107 
	C1240.420044,219.062988 1245.964478,213.535919 1251.750000,207.750031 
z"/>
<path fill="#1D1D1B" opacity="1.000000" stroke="none" 
	d="
M127.753250,222.253265 
	C130.245697,225.331665 133.831482,227.927261 134.370468,231.048935 
	C134.970367,234.523239 133.791367,239.198792 131.677643,242.110840 
	C107.524757,275.386261 109.934441,317.254211 135.189041,348.579742 
	C140.549271,355.228485 140.387039,359.920197 134.337479,366.094269 
	C125.481537,375.132507 116.492180,384.040558 107.519691,392.963898 
	C100.336487,400.107758 94.664238,400.140900 88.101692,392.477081 
	C68.697746,369.816986 56.074631,343.855042 52.160099,314.172791 
	C48.176655,283.967957 51.620178,254.559906 65.745529,227.244720 
	C71.358986,216.389587 78.793991,206.423752 85.920448,196.424194 
	C89.948761,190.771835 95.993469,190.691254 100.969376,195.554489 
	C109.899689,204.282608 118.667099,213.177414 127.753250,222.253265 
z"/>
<path fill="#1D1D1B" opacity="1.000000" stroke="none" 
	d="
M245.594910,365.619568 
	C254.993622,359.654236 262.793365,352.534607 269.188568,343.813080 
	C273.639099,337.743591 278.288696,336.827484 284.819946,340.634430 
	C296.905670,347.678955 308.924225,354.841736 320.883575,362.098907 
	C326.723267,365.642548 327.860809,372.340027 323.513184,378.649200 
	C312.041992,395.295898 297.855072,409.190643 280.756683,420.070892 
	C252.636993,437.964264 221.778900,444.904388 188.765381,442.889252 
	C174.371521,442.010681 160.460999,438.529602 147.034470,433.350098 
	C137.478317,429.663635 136.106125,422.526367 143.341187,415.200348 
	C153.643936,404.768036 164.310410,394.681458 174.316772,383.975464 
	C179.241852,378.706085 184.706772,377.371582 191.377319,378.207306 
	C210.842880,380.646057 228.687820,375.899323 245.594910,365.619568 
z"/>
</svg>